<svg xmlns="http://www.w3.org/2000/svg" width="46" height="46" viewBox="0 0 46 46"><defs><style>.a{fill:#707070;}.b{fill:#fff;}</style></defs><circle class="a" cx="20" cy="20" r="20"/><g transform="translate(6.935 8.144)"><path class="b" d="M27.028,337.752H20.645a7.707,7.707,0,0,0-3.595-.946c-.038,0-.077,0-.113,0a7.749,7.749,0,0,0-3.708.945l-3.719.006a2,2,0,0,0-2,2,.837.837,0,0,0,.007.119,1.967,1.967,0,0,0,.065.406l-2.822-1.293-.045-.022-1.685-.77A2.135,2.135,0,0,0,0,340.134v.11a2.117,2.117,0,0,0,1.182,1.909l6.472,3.241a3.546,3.546,0,0,0,1.566.366H27.028a.5.5,0,0,0,.5-.5v-7.007a.5.5,0,0,0-.5-.5Zm-7.007,7.007H9.22A2.552,2.552,0,0,1,8.1,344.5l-6.469-3.241A1.123,1.123,0,0,1,1,340.244v-.11A1.135,1.135,0,0,1,2.61,339.1l1.671.763.045.022L8.3,341.71a.5.5,0,0,0,.209.045h5.506v-1H9.51a1,1,0,0,1-1-.956.485.485,0,0,0,0-.05,1,1,0,0,1,1-1h3.839a.5.5,0,0,0,.245-.064l.12-.068a6.8,6.8,0,0,1,3.208-.824.483.483,0,0,0,.092.01,6.692,6.692,0,0,1,3.007.746Zm6.507,0H21.022v-6.006h5.506Zm0,0" transform="translate(0 -321.61)"/><path class="b" d="M352,432h1v1h-1Zm0,0" transform="translate(-329.977 -410.853)"/><g transform="translate(5.506)"><g transform="translate(0)"><path class="b" d="M12.945,9.8A7.554,7.554,0,0,0,10.063,8,4.384,4.384,0,1,0,5.1,8,7.595,7.595,0,0,0,0,15.166H1.185a6.4,6.4,0,1,1,12.8,0h1.185A7.533,7.533,0,0,0,12.945,9.8ZM7.583,7.583a3.2,3.2,0,1,1,3.2-3.2A3.2,3.2,0,0,1,7.583,7.583Z" transform="translate(0)"/></g></g></g></svg>