<svg xmlns="http://www.w3.org/2000/svg" width="139.182" height="122.101" viewBox="0 0 139.182 122.101"><defs><style>.a{fill:#f1f1f1;}</style></defs><g transform="translate(-3803.022 -1283.457)"><g transform="translate(3803.022 1283.457)"><path class="a" d="M136.652,341.609H104.379A38.968,38.968,0,0,0,86.2,336.826c-.192-.017-.392-.025-.57-.025a39.178,39.178,0,0,0-18.748,4.777l-18.805.031a10.123,10.123,0,0,0-10.122,10.122,4.233,4.233,0,0,0,.036.6,9.941,9.941,0,0,0,.329,2.052l-14.265-6.536-.23-.114-8.521-3.892A10.8,10.8,0,0,0,0,353.654v.557a10.7,10.7,0,0,0,5.977,9.652L38.7,380.248a17.928,17.928,0,0,0,7.915,1.85h90.038a2.531,2.531,0,0,0,2.531-2.531V344.139a2.531,2.531,0,0,0-2.531-2.53Zm-35.428,35.428H46.613a12.9,12.9,0,0,1-5.673-1.326L8.234,359.323a5.678,5.678,0,0,1-3.173-5.112v-.557a5.736,5.736,0,0,1,8.133-5.212l8.451,3.859.227.111,20.09,9.212a2.544,2.544,0,0,0,1.058.23H70.856v-5.061H48.081a5.035,5.035,0,0,1-5.038-4.831,2.452,2.452,0,0,0-.023-.252,5.061,5.061,0,0,1,5.061-5.039H67.49a2.524,2.524,0,0,0,1.238-.324l.607-.342a34.358,34.358,0,0,1,16.219-4.165,2.457,2.457,0,0,0,.466.048,33.835,33.835,0,0,1,15.2,3.771Zm32.9,0H106.285V346.67h27.836Zm0,0" transform="translate(0 -259.997)"/><path class="a" d="M352,432h5.061v5.061H352Zm0,0" transform="translate(-240.654 -325.083)"/><g transform="translate(27.836 0)"><g transform="translate(0)"><path class="a" d="M65.448,49.567a38.192,38.192,0,0,0-14.569-9.138,22.164,22.164,0,1,0-25.081,0A38.4,38.4,0,0,0,0,76.677H5.99a32.348,32.348,0,1,1,64.7,0h5.99A38.088,38.088,0,0,0,65.448,49.567ZM38.338,38.338A16.174,16.174,0,1,1,54.512,22.164,16.192,16.192,0,0,1,38.338,38.338Z" transform="translate(0)"/></g></g></g></g></svg>