<svg xmlns="http://www.w3.org/2000/svg" width="46" height="46" viewBox="0 0 46 46"><defs><style>.a{fill:#707070;}.b{fill:#fff;}</style></defs><g transform="translate(-3716 -1259)"><circle class="a" cx="23" cy="23" r="23" transform="translate(3716 1259)"/><g transform="translate(3723 1235)"><path class="b" d="M174.556,44.113A5.556,5.556,0,1,0,169,38.556,5.563,5.563,0,0,0,174.556,44.113Zm0-9.2a3.64,3.64,0,1,1-3.64,3.64A3.645,3.645,0,0,1,174.556,34.916Z" transform="translate(-158.206)"/><path class="b" d="M380.513,104.025A3.513,3.513,0,1,0,377,100.513,3.517,3.517,0,0,0,380.513,104.025Zm0-5.109a1.6,1.6,0,1,1-1.6,1.6A1.6,1.6,0,0,1,380.513,98.916Z" transform="translate(-352.922 -59.913)"/><path class="b" d="M28.363,241H26.882a4.343,4.343,0,0,0-3.94,2.513,7.711,7.711,0,0,0-5.7-2.513H15.457a7.711,7.711,0,0,0-5.7,2.513A4.343,4.343,0,0,0,5.818,241H4.337A4.328,4.328,0,0,0,0,245.31v6.975a1.877,1.877,0,0,0,1.878,1.871H7.737A2.239,2.239,0,0,0,9.965,256.2H22.735a2.239,2.239,0,0,0,2.228-2.044h5.791a1.944,1.944,0,0,0,1.945-1.938V245.31A4.329,4.329,0,0,0,28.363,241ZM1.916,245.31a2.41,2.41,0,0,1,2.421-2.394H5.818a2.41,2.41,0,0,1,2.421,2.394v.656c-.644,1.677-.511,2.683-.511,6.274H1.916Zm21.14,8.653a.321.321,0,0,1-.321.321H9.965a.321.321,0,0,1-.321-.321v-5.234a5.82,5.82,0,0,1,5.813-5.813h1.786a5.82,5.82,0,0,1,5.813,5.813Zm7.728-1.745c0,.033.357.022-5.812.022,0-3.618.132-4.6-.511-6.274v-.656a2.41,2.41,0,0,1,2.421-2.394h1.482a2.41,2.41,0,0,1,2.421,2.394Z" transform="translate(0 -194.716)"/><path class="b" d="M28.513,104.025A3.513,3.513,0,1,0,25,100.513,3.517,3.517,0,0,0,28.513,104.025Zm0-5.109a1.6,1.6,0,1,1-1.6,1.6A1.6,1.6,0,0,1,28.513,98.916Z" transform="translate(-23.403 -59.913)"/></g></g></svg>