<svg xmlns="http://www.w3.org/2000/svg" width="15.452" height="18.207" viewBox="0 0 15.452 18.207"><defs><style>.a{fill:#5964e0;}</style></defs><path class="a" d="M222.844,154.7a.436.436,0,0,0-.446.426v8.059a.446.446,0,0,0,.891,0v-8.059A.436.436,0,0,0,222.844,154.7Zm0,0" transform="translate(-212.489 -148.107)"/><path class="a" d="M104.844,154.7a.436.436,0,0,0-.446.426v8.059a.446.446,0,0,0,.891,0v-8.059A.436.436,0,0,0,104.844,154.7Zm0,0" transform="translate(-99.746 -148.107)"/><path class="a" d="M1.262,5.419V15.924a2.3,2.3,0,0,0,.654,1.622,2.242,2.242,0,0,0,1.592.659h8.43a2.241,2.241,0,0,0,1.592-.659,2.3,2.3,0,0,0,.654-1.622V5.419a1.632,1.632,0,0,0,1.251-1.785,1.679,1.679,0,0,0-1.688-1.418H11.465V1.683a1.639,1.639,0,0,0-.514-1.2A1.792,1.792,0,0,0,9.7,0H5.745a1.792,1.792,0,0,0-1.25.489,1.639,1.639,0,0,0-.514,1.2v.533H1.7A1.679,1.679,0,0,0,.011,3.634,1.632,1.632,0,0,0,1.262,5.419ZM11.938,17.352H3.508a1.376,1.376,0,0,1-1.354-1.428V5.456H13.292V15.924a1.376,1.376,0,0,1-1.354,1.428ZM4.871,1.683a.8.8,0,0,1,.253-.592.879.879,0,0,1,.62-.239H9.7a.879.879,0,0,1,.62.239.8.8,0,0,1,.253.592v.533h-5.7ZM1.7,3.069H13.747a.768.768,0,1,1,0,1.535H1.7a.768.768,0,1,1,0-1.535Zm0,0" transform="translate(0.003 0.002)"/><path class="a" d="M163.844,154.7a.436.436,0,0,0-.446.426v8.059a.446.446,0,0,0,.891,0v-8.059A.436.436,0,0,0,163.844,154.7Zm0,0" transform="translate(-156.118 -148.107)"/></svg>