<svg xmlns="http://www.w3.org/2000/svg" xmlns:xlink="http://www.w3.org/1999/xlink" width="86" height="86" viewBox="0 0 86 86"><defs><style>.a{fill:#fff;stroke:#707070;}.b{clip-path:url(#a);}.c{fill:#cddc39;}.d{fill:#4caf50;}</style><clipPath id="a"><rect class="a" width="86" height="86" rx="10" transform="translate(0.085)"/></clipPath></defs><g class="b" transform="translate(-0.085)"><g transform="translate(1.652 0)"><path class="c" d="M83.968.892A1.792,1.792,0,0,0,82.417,0H64.5a1.792,1.792,0,0,0-1.559.9L34.275,51.07a1.792,1.792,0,0,0,0,1.759l17.917,32.25A1.792,1.792,0,0,0,53.75,86H71.667a1.792,1.792,0,0,0,1.566-2.662L55.807,51.958,83.976,2.68A1.791,1.791,0,0,0,83.968.892Z" transform="translate(-1.789 0)"/><path class="d" d="M37.371,33.121,26.621,15.2a1.791,1.791,0,0,0-1.537-.871H7.167A1.792,1.792,0,0,0,5.63,17.046L15.842,34.063,2.025,58.236a1.792,1.792,0,0,0,1.559,2.68H21.5a1.792,1.792,0,0,0,1.559-.9L37.392,34.93A1.792,1.792,0,0,0,37.371,33.121Z" transform="translate(-1.789 0)"/></g></g></svg>