<svg xmlns="http://www.w3.org/2000/svg" width="19.354" height="18.207" viewBox="0 0 19.354 18.207"><defs><style>.a{fill:#5964e0;}</style></defs><path class="a" d="M17.8,48.744a.467.467,0,0,0-.48.452v4.013a1.4,1.4,0,0,1-1.441,1.356H2.4A1.4,1.4,0,0,1,.961,53.209V41.432A1.4,1.4,0,0,1,2.4,40.076H6.666a.453.453,0,1,0,0-.9H2.4A2.337,2.337,0,0,0,0,41.432V53.209a2.337,2.337,0,0,0,2.4,2.26H15.879a2.337,2.337,0,0,0,2.4-2.26V49.2a.467.467,0,0,0-.48-.452Zm0,0" transform="translate(0 -37.262)"/><path class="a" d="M121.957.908a2.382,2.382,0,0,0-3.264,0l-9.15,8.756a.486.486,0,0,0-.132.216l-1.2,4.157a.476.476,0,0,0,.131.478.529.529,0,0,0,.5.126l4.344-1.152a.518.518,0,0,0,.226-.126l9.149-8.756a2.144,2.144,0,0,0,0-3.123Zm-11.3,9.075,7.488-7.166,2.415,2.311-7.489,7.166Zm-.482.926,1.929,1.847-2.669.708Zm11.655-7-.544.521-2.415-2.311.544-.521a1.323,1.323,0,0,1,1.813,0l.6.576A1.192,1.192,0,0,1,121.834,3.913Zm0,0" transform="translate(-103.88 -0.261)"/></svg>