<svg xmlns="http://www.w3.org/2000/svg" width="20.742" height="18.207" viewBox="0 0 20.742 18.207"><defs><style>.a{fill:#5964e0;}</style></defs><g transform="translate(0)"><path class="a" d="M17.955,22.78a9.672,9.672,0,0,0-6.726-2.667,9.651,9.651,0,0,0-6.811,2.749.479.479,0,0,0,.009.694.533.533,0,0,0,.726-.008,8.616,8.616,0,0,1,6.077-2.45,8.314,8.314,0,0,1,8.488,8.119,8.32,8.32,0,0,1-8.488,8.123,8.32,8.32,0,0,1-8.488-8.123v-.1l.845.809a.526.526,0,0,0,.363.143.534.534,0,0,0,.363-.143.476.476,0,0,0,0-.694L2.6,27.583a.529.529,0,0,0-.726,0L.15,29.229a.476.476,0,0,0,0,.694.526.526,0,0,0,.363.143.534.534,0,0,0,.363-.143l.845-.809v.1a8.853,8.853,0,0,0,2.787,6.436,9.672,9.672,0,0,0,6.726,2.667,9.672,9.672,0,0,0,6.726-2.667,8.831,8.831,0,0,0,0-12.873Z" transform="translate(0 -20.113)"/><path class="a" d="M162.893,113.413a2.957,2.957,0,0,0-3.017,2.887v1.393h-.939a.5.5,0,0,0-.512.49v4.889a.5.5,0,0,0,.512.49h7.917a.5.5,0,0,0,.512-.49v-4.885a.5.5,0,0,0-.512-.49h-.939V116.3A2.964,2.964,0,0,0,162.893,113.413ZM160.9,116.3a1.995,1.995,0,0,1,3.986,0V117.7H160.9V116.3Zm5.441,6.277h-6.892v-3.908h6.892Z" transform="translate(-151.664 -109.603)"/></g></svg>