<svg xmlns="http://www.w3.org/2000/svg" xmlns:xlink="http://www.w3.org/1999/xlink" width="86" height="86" viewBox="0 0 86 86"><defs><style>.a{fill:#fff;stroke:#707070;}.b{clip-path:url(#a);}.c{fill:#f03800;}.d{fill:#e3e7ea;}.e{fill:#fdbf00;}.f{fill:#00a66c;}.g{fill:#fff5f5;}.h{fill:#4086f4;}.i{fill:#4175df;}</style><clipPath id="a"><rect class="a" width="86" height="86" rx="10"/></clipPath></defs><g class="b"><g transform="translate(0 8.65)"><g transform="translate(0 43.45)"><path class="c" d="M57.652,77.35,12.6,77.335A12.637,12.637,0,0,1,0,64.7,12.614,12.614,0,0,1,12.637,52.1l14.837.012a2.529,2.529,0,0,1,1.5.5L53.632,70.857A7.338,7.338,0,0,0,57.706,72.3a2.524,2.524,0,0,1-.054,5.048Z" transform="translate(0 -52.1)"/></g><g transform="translate(10.101 53.541)"><circle class="d" cx="2.525" cy="2.525" r="2.525"/></g><g transform="translate(8.951 16.413)"><path class="e" d="M53.865,74.178a2.515,2.515,0,0,0-.476-3.491,8.17,8.17,0,0,1-2.61-3.819L43.671,43.559l-1.8-5.944a2.483,2.483,0,0,0-.933-1.3L29.092,27.565a12.649,12.649,0,0,0-17.681,2.569,11.136,11.136,0,0,0-1.005,1.626,12.7,12.7,0,0,0,3.165,15.7,2.847,2.847,0,0,0,.5.393L50.31,74.685a2.577,2.577,0,0,0,3.555-.507Z" transform="translate(-8.951 -25.063)"/></g><g transform="translate(32.18)"><path class="f" d="M48.972,69.7A2.524,2.524,0,0,1,45.865,68L32.752,24.952a12.6,12.6,0,1,1,24.1-7.358l4.361,14.138a2.524,2.524,0,0,1-.033,1.589L50.932,62.207a7.451,7.451,0,0,0-.215,4.411A2.523,2.523,0,0,1,48.972,69.7Z" transform="translate(-32.18 -8.65)"/><g transform="translate(10.103 10.099)"><circle class="g" cx="2.525" cy="2.525" r="2.525"/></g></g><g transform="translate(45.43 0.318)"><path class="h" d="M58.709,77.335,57.6,77.35a11.933,11.933,0,0,1-3.75-.713,12.547,12.547,0,0,1-3.572-1.995,12.98,12.98,0,0,1-4.273-6.156c-.016-.05-.151-.517-.165-.569a12.448,12.448,0,0,1,.333-7.4L61.478,17.372a12.624,12.624,0,1,1,23.794,8.44L69.967,68.96a12.776,12.776,0,0,1-11.258,8.375Z" transform="translate(-45.43 -8.968)"/></g><path class="i" d="M58.709,77.335A12.777,12.777,0,0,0,69.968,68.96L85.273,25.813A12.638,12.638,0,0,0,77.6,9.7L53.85,76.637a11.932,11.932,0,0,0,3.75.713Z" transform="translate(0 -8.65)"/><g transform="translate(55.546 53.565)"><circle class="d" cx="2.525" cy="2.525" r="2.525"/></g><path class="d" d="M60.45,65.584a2.525,2.525,0,0,0-1.535-3.224l-1.688,4.759a2.524,2.524,0,0,0,3.223-1.535Z" transform="translate(0 -8.65)"/><g transform="translate(70.851 10.418)"><circle class="g" cx="2.525" cy="2.525" r="2.525"/></g><g transform="translate(19.018 26.523)"><path class="g" d="M23.584,39.166a2.359,2.359,0,0,0,.147-2.68,1.852,1.852,0,0,0-.671-.827,2.384,2.384,0,0,0-2.422-.27,2.437,2.437,0,0,0-1.085.794,2.477,2.477,0,0,0,.507,3.555,2.511,2.511,0,0,0,3.524-.571Z" transform="translate(-19.018 -35.173)"/></g><g transform="translate(19.018 10.563)"><path class="d" d="M23.584,39.166a2.359,2.359,0,0,0,.147-2.68l-3.093-1.1a2.437,2.437,0,0,0-1.085.794,2.477,2.477,0,0,0,.507,3.555A2.511,2.511,0,0,0,23.584,39.166Z" transform="translate(-19.018 -19.213)"/><path class="d" d="M75.755,22.437a2.525,2.525,0,0,0-1.535-3.224l-1.688,4.759A2.525,2.525,0,0,0,75.755,22.437Z" transform="translate(-19.018 -19.213)"/></g></g></g></svg>